<svg width="24" height="24" viewBox="0 0 24 24" fill="none" xmlns="http://www.w3.org/2000/svg"><path fill-rule="evenodd" clip-rule="evenodd" d="M15.466 8.53358C15.8175 8.88505 15.8175 9.4549 15.466 9.80637L9.80601 15.4664C9.45453 15.8178 8.88469 15.8178 8.53321 15.4664C8.18174 15.1149 8.18174 14.5451 8.53321 14.1936L14.1932 8.53358C14.5447 8.18211 15.1145 8.18211 15.466 8.53358Z" fill="#A3ADB8"></path><path fill-rule="evenodd" clip-rule="evenodd" d="M8.53321 8.53358C8.88469 8.18211 9.45453 8.18211 9.80601 8.53358L15.466 14.1936C15.8175 14.5451 15.8175 15.1149 15.466 15.4664C15.1145 15.8178 14.5447 15.8178 14.1932 15.4664L8.53321 9.80637C8.18174 9.4549 8.18174 8.88505 8.53321 8.53358Z" fill="#A3ADB8"></path><path fill-rule="evenodd" clip-rule="evenodd" d="M11.9996 3.89998C7.52567 3.89998 3.89961 7.52603 3.89961 12C3.89961 16.4739 7.52567 20.1 11.9996 20.1C16.4736 20.1 20.0996 16.4739 20.0996 12C20.0996 7.52603 16.4736 3.89998 11.9996 3.89998ZM2.09961 12C2.09961 6.53192 6.53155 2.09998 11.9996 2.09998C17.4677 2.09998 21.8996 6.53192 21.8996 12C21.8996 17.468 17.4677 21.9 11.9996 21.9C6.53155 21.9 2.09961 17.468 2.09961 12Z" fill="#A3ADB8"></path></svg>