<svg width="24" height="24" viewBox="0 0 24 24" fill="none" xmlns="http://www.w3.org/2000/svg"><path d="M10.8699 9.87006L14.6499 13.6501M20.2209 4.29206C19.4379 3.50906 18.1829 3.46806 17.3499 4.19606L9.31291 11.2281C8.44191 11.9901 8.39791 13.3291 9.21591 14.1471L10.3649 15.2961C11.1829 16.1141 12.5229 16.0691 13.2839 15.1991L20.3159 7.16206C21.0449 6.33006 21.0029 5.07506 20.2209 4.29206ZM3.59891 20.3231H7.30191C10.2869 20.3231 11.7819 16.7141 9.67091 14.6031C8.11891 13.0511 5.48291 13.6221 4.71291 15.6771L3.19091 19.7351C3.08491 20.0201 3.29491 20.3231 3.59891 20.3231Z" stroke="#FF6F91" stroke-width="1.8" stroke-linecap="round" stroke-linejoin="round"></path></svg>