<svg width="24" height="24" viewBox="0 0 24 24" fill="none" xmlns="http://www.w3.org/2000/svg"><path fill-rule="evenodd" clip-rule="evenodd" d="M3.76632 20C3.76632 19.5029 4.16927 19.1 4.66632 19.1H13.333C13.83 19.1 14.233 19.5029 14.233 20C14.233 20.497 13.83 20.9 13.333 20.9H4.66632C4.16927 20.9 3.76632 20.497 3.76632 20Z" fill="#A3ADB8"></path><path fill-rule="evenodd" clip-rule="evenodd" d="M4.31816 7.9902L9.22076 3.08759C10.2622 2.04619 11.9506 2.04619 12.992 3.08759L15.0662 5.16177C16.1076 6.20317 16.1076 7.89161 15.0662 8.93301L10.1636 13.8356C9.12218 14.877 7.43374 14.877 6.39234 13.8356L4.31816 11.7614C3.27676 10.72 3.27676 9.03159 4.31816 7.9902ZM5.59095 9.26299C5.2525 9.60144 5.2525 10.1502 5.59095 10.4886L7.66513 12.5628C8.00358 12.9013 8.55233 12.9013 8.89078 12.5628L13.7934 7.66021C14.1318 7.32176 14.1318 6.77302 13.7934 6.43456L11.7192 4.36038C11.3808 4.02193 10.832 4.02193 10.4936 4.36038L5.59095 9.26299Z" fill="#A3ADB8"></path><path fill-rule="evenodd" clip-rule="evenodd" d="M11.5776 10.8181C11.9291 10.4666 12.499 10.4666 12.8504 10.8181L19.4862 17.4538C19.8376 17.8053 19.8376 18.3752 19.4862 18.7266C19.1347 19.0781 18.5649 19.0781 18.2134 18.7266L11.5776 12.0909C11.2262 11.7394 11.2262 11.1696 11.5776 10.8181Z" fill="#A3ADB8"></path></svg>