<svg width="24" height="24" viewBox="0 0 24 24" fill="none" xmlns="http://www.w3.org/2000/svg"><path fill-rule="evenodd" clip-rule="evenodd" d="M9.68182 2.59998C9.94456 2.59998 10.1942 2.71478 10.3652 2.91426L13.4351 6.49587L15.1803 4.45972C15.3513 4.26024 15.6009 4.14543 15.8636 4.14543C16.1264 4.14542 16.376 4.26023 16.547 4.45971L18.4829 6.71826C19.8667 8.33267 20.6273 10.3888 20.6273 12.5151V12.7727C20.6273 13.9056 20.4041 15.0275 19.9706 16.0742C19.537 17.1209 18.9015 18.072 18.1004 18.8731C17.2993 19.6742 16.3482 20.3097 15.3015 20.7433C14.2548 21.1768 13.133 21.4 12 21.4C9.71192 21.4 7.51754 20.491 5.89961 18.8731C4.28168 17.2552 3.37274 15.0608 3.37274 12.7727C3.37274 10.6464 4.13337 8.59023 5.51715 6.97581L8.99849 2.91426C9.16948 2.71478 9.41909 2.59998 9.68182 2.59998ZM9.68182 4.88291L6.88381 8.14724C5.77966 9.43541 5.17274 11.0761 5.17274 12.7727C5.17274 14.5834 5.89204 16.32 7.1724 17.6003C8.45276 18.8807 10.1893 19.6 12 19.6C12.8966 19.6 13.7844 19.4234 14.6127 19.0803C15.441 18.7372 16.1937 18.2343 16.8276 17.6003C17.4616 16.9663 17.9645 16.2137 18.3076 15.3854C18.6507 14.557 18.8273 13.6692 18.8273 12.7727V12.5151C18.8273 10.8185 18.2204 9.17786 17.1162 7.88969L15.8637 6.42837L14.1184 8.46452C13.9475 8.664 13.6978 8.77881 13.4351 8.77882C13.1724 8.77882 12.9228 8.66401 12.7518 8.46453L9.68182 4.88291Z" fill="var(--dynamic_red)"></path></svg>