<svg width="24" height="24" viewBox="0 0 24 24" fill="none" xmlns="http://www.w3.org/2000/svg"><path d="M5.96905 6.62488L5.30205 3.62488H3.37305" fill="#079BF9"></path><path d="M5.96905 6.62488L5.30205 3.62488H3.37305" stroke="#079BF9" stroke-width="1.8" stroke-linecap="round" stroke-linejoin="round"></path><path d="M7.73075 14.8349L5.96875 6.62488H18.6268C19.2638 6.62488 19.7377 7.21188 19.6047 7.83488L18.1028 14.8349C18.0038 15.2959 17.5968 15.6249 17.1248 15.6249H8.70775C8.23675 15.6249 7.82975 15.2959 7.73075 14.8349Z" stroke="#079BF9" stroke-width="1.8" stroke-linecap="round" stroke-linejoin="round"></path><path d="M8.85544 19.2501C8.64844 19.2501 8.48044 19.4181 8.48244 19.6251C8.48144 19.8321 8.64944 20.0001 8.85644 20.0001C9.06344 20.0001 9.23144 19.8321 9.23144 19.6251C9.23144 19.4181 9.06344 19.2501 8.85544 19.2501" stroke="#079BF9" stroke-width="1.8" stroke-linecap="round" stroke-linejoin="round"></path><path d="M17.5156 19.2501C17.3086 19.2501 17.1406 19.4181 17.1426 19.6251C17.1416 19.8321 17.3096 20.0001 17.5166 20.0001C17.7236 20.0001 17.8916 19.8321 17.8916 19.6251C17.8916 19.4181 17.7236 19.2501 17.5156 19.2501" stroke="#079BF9" stroke-width="1.8" stroke-linecap="round" stroke-linejoin="round"></path></svg>