<svg width="24" height="24" viewBox="0 0 24 24" fill="none" xmlns="http://www.w3.org/2000/svg"><path fill-rule="evenodd" clip-rule="evenodd" d="M9.23601 2.7636C9.58748 3.11508 9.58748 3.68492 9.23601 4.0364L6.2724 7L9.23601 9.9636C9.58748 10.3151 9.58748 10.8849 9.23601 11.2364C8.88453 11.5879 8.31469 11.5879 7.96321 11.2364L4.36321 7.6364C4.19443 7.46761 4.09961 7.2387 4.09961 7C4.09961 6.7613 4.19443 6.53239 4.36321 6.3636L7.96321 2.7636C8.31469 2.41213 8.88453 2.41213 9.23601 2.7636Z" fill="#52CDCD"></path><path fill-rule="evenodd" clip-rule="evenodd" d="M4.09961 7C4.09961 6.50294 4.50255 6.1 4.99961 6.1H18.9996C19.4967 6.1 19.8996 6.50294 19.8996 7C19.8996 7.49706 19.4967 7.9 18.9996 7.9H4.99961C4.50255 7.9 4.09961 7.49706 4.09961 7Z" fill="#52CDCD"></path><path fill-rule="evenodd" clip-rule="evenodd" d="M14.7632 12.7636C15.1147 12.4121 15.6845 12.4121 16.036 12.7636L19.636 16.3636C19.9875 16.7151 19.9875 17.2849 19.636 17.6364L16.036 21.2364C15.6845 21.5879 15.1147 21.5879 14.7632 21.2364C14.4117 20.8849 14.4117 20.3151 14.7632 19.9636L17.7268 17L14.7632 14.0364C14.4117 13.6849 14.4117 13.1151 14.7632 12.7636Z" fill="#52CDCD"></path><path fill-rule="evenodd" clip-rule="evenodd" d="M4.09961 17C4.09961 16.5029 4.50255 16.1 4.99961 16.1H18.9996C19.4967 16.1 19.8996 16.5029 19.8996 17C19.8996 17.4971 19.4967 17.9 18.9996 17.9H4.99961C4.50255 17.9 4.09961 17.4971 4.09961 17Z" fill="#52CDCD"></path></svg>