<svg width="24" height="24" viewBox="0 0 24 24" fill="none" xmlns="http://www.w3.org/2000/svg"><path fill-rule="evenodd" clip-rule="evenodd" d="M11.9996 7.09998C12.4967 7.09998 12.8996 7.50292 12.8996 7.99998V16C12.8996 16.497 12.4967 16.9 11.9996 16.9C11.5026 16.9 11.0996 16.497 11.0996 16V7.99998C11.0996 7.50292 11.5026 7.09998 11.9996 7.09998Z" fill="#4BB34B"></path><path fill-rule="evenodd" clip-rule="evenodd" d="M7.09961 12C7.09961 11.5029 7.50255 11.1 7.99961 11.1H15.9996C16.4967 11.1 16.8996 11.5029 16.8996 12C16.8996 12.497 16.4967 12.9 15.9996 12.9H7.99961C7.50255 12.9 7.09961 12.497 7.09961 12Z" fill="#4BB34B"></path><path fill-rule="evenodd" clip-rule="evenodd" d="M11.9996 3.89998C7.52567 3.89998 3.89961 7.52603 3.89961 12C3.89961 16.4739 7.52567 20.1 11.9996 20.1C16.4736 20.1 20.0996 16.4739 20.0996 12C20.0996 7.52603 16.4736 3.89998 11.9996 3.89998ZM2.09961 12C2.09961 6.53192 6.53155 2.09998 11.9996 2.09998C17.4677 2.09998 21.8996 6.53192 21.8996 12C21.8996 17.468 17.4677 21.9 11.9996 21.9C6.53155 21.9 2.09961 17.468 2.09961 12Z" fill="#4BB34B"></path></svg>